<svg xmlns="http://www.w3.org/2000/svg" viewBox="-2 -2 44 48" width="32" height="32">
  <rect x="-2" y="-2" width="44" height="48" rx="6" fill="#1a2e1f"/>
  <g transform="translate(4, 2) scale(0.85)">
    <path d="M0 0 L0 42" stroke="#52b788" stroke-width="4.5" stroke-linecap="round"/>
    <path d="M0 0 Q30 0 30 21 Q30 42 0 42" fill="none" stroke="#52b788" stroke-width="4.5" stroke-linecap="round"/>
    <circle cx="13" cy="21" r="10" fill="none" stroke="#74c69d" stroke-width="2" opacity="0.5"/>
    <g transform="translate(13, 21) scale(0.9) translate(-13, -21)">
      <line x1="9.5" y1="14" x2="9.5" y2="28" stroke="#74c69d" stroke-width="2" stroke-linecap="round" opacity="0.7"/>
      <line x1="8" y1="14" x2="8" y2="17" stroke="#74c69d" stroke-width="1.5" stroke-linecap="round" opacity="0.7"/>
      <line x1="11" y1="14" x2="11" y2="17" stroke="#74c69d" stroke-width="1.5" stroke-linecap="round" opacity="0.7"/>
      <path d="M16.5 12 C14 12 13.5 14.5 14.5 16.5 C15 17.5 15.8 18 15.9 18.5 L15.9 28 L17.1 28 L17.1 18.5 C17.2 18 18 17.5 18.5 16.5 C19.5 14.5 19 12 16.5 12 Z" fill="#74c69d" fill-opacity="0.7" stroke="none"/>
    </g>
  </g>
</svg>
